<svg width="11" height="11" viewBox="0 0 11 11" fill="none" xmlns="http://www.w3.org/2000/svg">
<path d="M10.5636 8.19643C10.7302 8.3631 10.8136 8.56548 10.8136 8.80357C10.8136 9.04167 10.7302 9.24405 10.5636 9.41071L9.34928 10.625C9.18261 10.7917 8.98023 10.875 8.74214 10.875C8.50404 10.875 8.30166 10.7917 8.13499 10.625L5.50999 8L2.88499 10.625C2.71833 10.7917 2.51594 10.875 2.27785 10.875C2.03975 10.875 1.83737 10.7917 1.67071 10.625L0.456421 9.41071C0.289754 9.24405 0.206421 9.04167 0.206421 8.80357C0.206421 8.56548 0.289754 8.3631 0.456421 8.19643L3.08142 5.57143L0.456421 2.94643C0.289754 2.77976 0.206421 2.57738 0.206421 2.33928C0.206421 2.10119 0.289754 1.89881 0.456421 1.73214L1.67071 0.517857C1.83737 0.35119 2.03975 0.267857 2.27785 0.267857C2.51594 0.267857 2.71833 0.35119 2.88499 0.517857L5.50999 3.14286L8.13499 0.517857C8.30166 0.35119 8.50404 0.267857 8.74214 0.267857C8.98023 0.267857 9.18261 0.35119 9.34928 0.517857L10.5636 1.73214C10.7302 1.89881 10.8136 2.10119 10.8136 2.33928C10.8136 2.57738 10.7302 2.77976 10.5636 2.94643L7.93856 5.57143L10.5636 8.19643Z" fill="#D92047"/>
</svg>
